<?xml version="1.0" encoding="UTF-8"?>
<svg id="_圖層_1" data-name="圖層 1" xmlns="http://www.w3.org/2000/svg" viewBox="0 0 320 320">
  <defs>
    <style>
      .cls-1 {
        fill: #fff;
      }
    </style>
  </defs>
  <path class="cls-1" d="M293.51,167h-15.63c-3.43-19.28-17.2-34.98-35.38-41.16v-24.84c-13,0-23.77,9.54-25.69,22H94.68c-29.49,0-53.4,23.91-53.4,53.4v29.19c0,.92,.02,1.84,.07,2.74-11.19-1.23-20.06-10.13-21.22-21.34-.09,.82-.13,1.66-.13,2.5,0,12.53,9.61,22.81,21.85,23.9,3.78,25.79,25.99,45.6,52.83,45.6h-3.68l2.66,18.6c.77,5.4,5.39,9.4,10.84,9.4s10.07-4.01,10.84-9.4l2.66-18.6h84l2.66,18.6c.77,5.4,5.39,9.4,10.84,9.4s10.07-4.01,10.84-9.4l2.66-18.6h-3.68c26.63,0,48.71-19.5,52.74-45h15.45c3.03,0,5.49-2.46,5.49-5.49v-36.02c0-3.03-2.46-5.49-5.49-5.49Zm-59.01-.48c-6.64,0-12.02-5.38-12.02-12.02s5.38-12.02,12.02-12.02,12.02,5.38,12.02,12.02-5.38,12.02-12.02,12.02Z"/>
  <path class="cls-1" d="M162.3,45.38c-23.23,0-42.14,18.9-42.14,42.14,0,9.57,3.21,18.4,8.6,25.48h5.96c-6.2-6.7-9.99-15.65-9.99-25.48,0-20.71,16.85-37.56,37.56-37.56s37.56,16.85,37.56,37.56c0,9.83-3.8,18.78-9.99,25.48h6.45c.15-.47,.32-.92,.51-1.38,1.2-1.72,2.28-3.52,3.22-5.41,2.8-5.64,4.39-11.98,4.39-18.69,0-23.23-18.9-42.14-42.14-42.14Z"/>
  <path class="cls-1" d="M160,107.7c-3.77-.44-8.03-2.16-10.97-4.82l3.6-5.49c3.05,2.38,5.98,3.77,9.14,3.77,3.88,0,5.65-1.72,5.65-4.88,0-7.48-16.84-6.81-16.84-18.39,0-6.04,3.6-10.19,9.42-11.3v-6.43h5.49v6.32c3.99,.55,6.81,2.49,9.2,5.04l-4.1,4.65c-2.27-2.11-4.27-3.27-7.09-3.27-3.27,0-5.1,1.55-5.1,4.6,0,6.87,16.84,5.82,16.84,18.23,0,6.04-3.38,10.53-9.75,11.75v6.43h-5.49v-6.21Z"/>
</svg>